<svg width="20" height="24" viewBox="0 0 20 24" fill="none" xmlns="http://www.w3.org/2000/svg">
<path d="M6.575 9.6C6.575 11.2652 7.93482 12.625 9.6 12.625C11.2652 12.625 12.625 11.2652 12.625 9.6C12.625 7.93482 11.2652 6.575 9.6 6.575C7.93482 6.575 6.575 7.93482 6.575 9.6ZM0.625 9.84C0.625 4.2283 4.88574 0.625 9.6 0.625C14.3143 0.625 18.575 4.2283 18.575 9.84C18.575 11.6635 17.8406 13.7168 16.2813 16.0156C14.7904 18.2135 12.5695 20.6 9.6 23.1755C6.63055 20.6 4.40958 18.2135 2.91873 16.0156C1.35935 13.7168 0.625 11.6635 0.625 9.84Z" stroke="#0067A2" stroke-width="1.25"/>
</svg>
