<svg width="25" height="19" viewBox="0 0 25 19" fill="none" xmlns="http://www.w3.org/2000/svg">
<path d="M3.98967 0H20.4107C21.4158 0 22.3796 0.399247 23.0903 1.10991C23.8009 1.82058 24.2002 2.78444 24.2002 3.78947V15.1579C24.2002 16.1629 23.8009 17.1268 23.0903 17.8375C22.3796 18.5481 21.4158 18.9474 20.4107 18.9474H3.98967C2.98464 18.9474 2.02077 18.5481 1.31011 17.8375C0.599442 17.1268 0.200195 16.1629 0.200195 15.1579V3.78947C0.200195 2.78444 0.599442 1.82058 1.31011 1.10991C2.02077 0.399247 2.98464 0 3.98967 0ZM3.98967 1.26316C3.37325 1.26316 2.80735 1.48421 2.36904 1.85179L12.2002 8.23579L22.0314 1.85179C21.5773 1.47084 21.0034 1.26238 20.4107 1.26316H3.98967ZM12.2002 9.74147L1.63262 2.88C1.52056 3.17012 1.46317 3.47847 1.46335 3.78947V15.1579C1.46335 15.8279 1.72952 16.4705 2.20329 16.9443C2.67707 17.418 3.31965 17.6842 3.98967 17.6842H20.4107C21.0807 17.6842 21.7233 17.418 22.1971 16.9443C22.6709 16.4705 22.937 15.8279 22.937 15.1579V3.78947C22.937 3.46863 22.8777 3.16168 22.7678 2.88L12.2002 9.74021V9.74147Z" fill="#0067A2"/>
</svg>
