<svg width="24" height="24" viewBox="0 0 24 24" fill="none" xmlns="http://www.w3.org/2000/svg">
<path d="M0 12.2176V12.251C0.301255 16.1339 1.70711 19.046 4.15063 20.887C6.56067 22.7615 9.17155 23.6653 12.0167 23.6653C14.9958 23.6987 17.7741 22.6946 20.251 20.6862C22.7615 18.7113 24 15.7657 24 11.9498V11.7155C24 7.8661 22.7615 4.98744 20.251 3.01255C17.7406 1.00418 14.9623 -3.8147e-06 11.9833 -3.8147e-06H11.8494C8.93724 0.0334682 6.25941 1.03765 3.78243 3.04602C1.30544 5.02092 0.0334728 8.06694 0 12.2176ZM11.2803 17.4728V22.7615H10.477C10.3096 22.5607 10.1757 22.3264 10.0418 22.1255C9.90795 21.9247 9.77406 21.7238 9.64017 21.4895C9.50628 21.2887 9.33891 21.0209 9.23849 20.8201C9.1046 20.6192 9.00418 20.4184 8.90377 20.1841C8.70293 19.8494 8.53556 19.5146 8.40167 19.2134C8.23431 18.9121 8.10042 18.6109 8 18.3431C8.20084 18.2092 8.43515 18.0418 8.70293 17.9414C9.00418 17.841 9.30544 17.7406 9.60669 17.6736C9.94142 17.6067 10.2427 17.5732 10.5105 17.5397C10.8117 17.5063 11.0795 17.4728 11.2803 17.4728ZM12.6862 22.7615V17.5063C12.8536 17.5063 13.0544 17.4728 13.2552 17.5063C13.4561 17.5063 13.6904 17.5397 13.8912 17.5732C14.2594 17.6402 14.6946 17.7406 15.0293 17.841C15.3975 17.9749 15.7322 18.1423 15.9665 18.3431C15.5649 19.3138 15.1297 20.0837 14.6946 20.8201C14.2594 21.5565 13.7573 22.1925 13.2218 22.728V22.7615H12.6862ZM9.07113 22.4602V22.4937C8.83682 22.3933 8.60251 22.2259 8.33473 22.1255C8.10042 22.0251 7.79916 21.8912 7.56485 21.7573C7.09623 21.523 6.62761 21.2552 6.159 20.954C5.72385 20.6527 5.2887 20.318 4.9205 19.9833C5.05439 19.8494 5.22176 19.7155 5.35565 19.6151C5.48954 19.5146 5.6569 19.3807 5.82427 19.2469C5.95816 19.1799 6.12552 19.0795 6.29289 18.9456C6.46025 18.8452 6.66109 18.7113 6.86192 18.5774C7.12971 19.1799 7.39749 19.8159 7.73222 20.3849C8.06695 20.9874 8.43515 21.5565 8.80335 22.0586C8.83682 22.1255 8.87029 22.1925 8.93724 22.2594C8.97071 22.2929 9.00418 22.3933 9.07113 22.4602ZM19.3138 19.9833V20.0167C18.477 20.6527 17.7406 21.1883 17.0042 21.523C16.2678 21.8577 15.5314 22.1925 14.8619 22.4602C15.3975 21.9247 15.8661 21.2552 16.1674 20.6192C16.5021 19.9498 16.8368 19.2469 17.1046 18.5774C17.2385 18.6443 17.4059 18.7113 17.6067 18.8452C17.7741 18.9456 18.0084 19.046 18.2092 19.1464C18.41 19.2803 18.5774 19.4142 18.7782 19.5481C18.9791 19.7155 19.1799 19.8494 19.3138 19.9833ZM18.7448 12.5188H22.5941C22.5941 13.7573 22.3264 14.9289 21.8243 16.1339C21.3556 17.3054 20.6862 18.2761 19.8494 19.113V19.1464C19.682 18.8787 19.4477 18.6443 19.2134 18.477C18.9456 18.3096 18.7113 18.1757 18.4435 18.0418C18.2761 17.9414 18.1088 17.8075 17.9414 17.7406C17.7741 17.6402 17.5397 17.5732 17.3724 17.4728C17.5063 17.205 17.6402 16.9038 17.7741 16.636C17.8745 16.3347 18.0418 16 18.1088 15.6987C18.3096 15.1632 18.4435 14.5941 18.5774 14.0251C18.6778 13.523 18.7448 12.9874 18.7448 12.5188ZM6.62761 17.4728V17.5063C6.35983 17.6402 6.05858 17.7406 5.82427 17.8745C5.58996 18.0418 5.35565 18.2092 5.15481 18.3431C4.95397 18.4435 4.75314 18.5774 4.58577 18.7113C4.41841 18.8452 4.28452 18.9791 4.15063 19.113C3.28033 18.2761 2.64435 17.3389 2.24268 16.2343C1.80753 15.1297 1.50628 13.8912 1.37238 12.5523H5.48954C5.48954 13.4895 5.62343 14.3933 5.85774 15.2971C6.05858 16.2343 6.35983 16.9372 6.62761 17.4728ZM11.2803 12.5523V16.4017C11.0126 16.3682 10.6778 16.3682 10.3766 16.4017C10.0418 16.4351 9.70711 16.5356 9.40586 16.636C9.13807 16.7029 8.80335 16.7699 8.53556 16.8703C8.23431 16.9372 7.93305 17.0711 7.69874 17.205C7.49791 16.8703 7.33054 16.4686 7.19665 16.0335C7.02929 15.6318 6.92887 15.1966 6.82845 14.795C6.76151 14.3933 6.72803 13.9582 6.69456 13.59C6.66109 13.2218 6.62761 12.8536 6.62761 12.5523H11.2803ZM12.6862 16.3347V12.5523H17.6402C17.6402 12.7531 17.6402 12.9874 17.6067 13.2552C17.5397 13.4895 17.5063 13.7908 17.4728 14.0586C17.3724 14.4602 17.272 14.8954 17.1381 15.2971C17.0042 15.6653 16.8703 16.0335 16.7029 16.3347C16.636 16.5021 16.569 16.7029 16.5021 16.8368C16.4017 17.0042 16.3013 17.1046 16.2343 17.205C15.8661 16.9372 15.364 16.7699 14.7615 16.636C14.1925 16.5021 13.523 16.3682 12.9205 16.3347H12.6862ZM5.48954 11.4477H1.37238C1.37238 10.8787 1.4728 10.2427 1.64017 9.4728C1.80753 8.66945 2.14226 7.93305 2.51046 7.1297C2.67782 6.72803 2.87866 6.32636 3.0795 5.92468C3.31381 5.55648 3.58159 5.15481 3.84937 4.78661C4.05021 4.9205 4.25105 5.02092 4.41841 5.12134C4.61925 5.22175 4.85356 5.35564 5.05439 5.45606C5.2887 5.55648 5.52301 5.6569 5.79079 5.79079C6.0251 5.89121 6.32636 6.0251 6.62761 6.15899C6.35983 6.99581 6.05858 7.79916 5.85774 8.70292C5.62343 9.57322 5.48954 10.4435 5.48954 11.4142V11.4477ZM11.2803 7.53138V11.4477H6.62761C6.62761 11.1799 6.66109 10.7782 6.72803 10.3766C6.76151 9.97489 6.86192 9.53974 6.92887 9.1046C7.06276 8.63598 7.16318 8.16736 7.29707 7.76569C7.43096 7.36401 7.56485 7.02928 7.69874 6.72803C8.30126 6.96234 8.90377 7.1297 9.30544 7.23012C9.74059 7.36401 10.1423 7.46443 10.5439 7.4979H10.9121C11.046 7.53138 11.1799 7.53138 11.2803 7.53138ZM12.6862 11.4477V7.56485C12.9205 7.53138 13.1883 7.4979 13.4561 7.46443C13.7573 7.43096 14.1255 7.36401 14.4268 7.29707L14.9289 7.19665C15.0962 7.1297 15.2971 7.09623 15.4644 7.06276C15.6653 6.99581 15.8661 6.96234 16.0669 6.89539C16.2343 6.82845 16.4017 6.79497 16.5356 6.72803C16.9707 7.83263 17.2385 8.7364 17.4059 9.50627C17.5732 10.2427 17.6402 10.8787 17.6402 11.4142V11.4477H12.6862ZM22.5941 11.4142V11.4477H18.7448V11.2469C18.7113 10.6109 18.6109 9.87447 18.477 9.1046C18.3431 8.3682 18.0418 7.4979 17.6402 6.42677C18.1757 6.15899 18.6778 5.89121 19.0795 5.62343C19.4812 5.35564 19.8494 5.05439 20.1172 4.78661C20.6862 5.35564 21.1883 6.12552 21.6234 7.1297C22.0586 8.10041 22.3598 9.1046 22.5272 10.1757C22.5607 10.3766 22.5607 10.5774 22.5941 10.7782V11.4142ZM11.2803 1.23849V6.46025C10.4435 6.32636 9.74059 6.15899 9.20502 6.0251C8.66946 5.89121 8.26778 5.75732 8 5.62343C8.20084 5.12134 8.40167 4.68619 8.60251 4.28452C8.80335 3.91632 9.03766 3.51464 9.23849 3.17991C9.30544 3.04602 9.43933 2.91213 9.53975 2.74477C9.64017 2.61087 9.70711 2.44351 9.80753 2.30962C9.90795 2.14226 10.0084 1.94142 10.1088 1.74058C10.2427 1.57322 10.3431 1.37238 10.477 1.23849H11.2803ZM12.6862 1.23849H13.4561C13.7573 1.4728 14.0586 1.80753 14.2929 2.17573C14.5607 2.54393 14.8619 2.97908 15.0628 3.34728C15.2971 3.78242 15.5314 4.1841 15.7322 4.58577C15.9331 4.98744 16.1004 5.35564 16.2343 5.62343C15.8661 5.75732 15.364 5.89121 14.8619 6.0251C14.3598 6.15899 13.6569 6.29288 12.6862 6.42677V1.23849ZM19.3138 3.98326V4.01673C19.2469 4.11715 19.113 4.25104 19.0126 4.35146C18.9121 4.45188 18.7448 4.58577 18.5774 4.68619C18.4435 4.78661 18.2761 4.88703 18.0753 4.98744C17.8745 5.08786 17.6067 5.22175 17.3724 5.35564C17.2385 5.08786 17.0042 4.61924 16.6695 3.98326C16.3682 3.34728 15.8326 2.5774 15.1632 1.74058C16 1.87447 16.7364 2.17573 17.4059 2.5774C18.1423 2.9456 18.7782 3.44769 19.3138 3.98326ZM6.86192 5.05439V5.08786C6.62761 4.95397 6.25941 4.78661 5.89121 4.61924C5.48954 4.45188 5.05439 4.25104 4.65272 3.98326C4.88703 3.78242 5.12134 3.58159 5.32218 3.44769C5.52301 3.28033 5.75732 3.14644 5.95816 3.01255C6.32636 2.77824 6.76151 2.54393 7.19665 2.34309C7.6318 2.14226 8.16736 1.94142 8.83682 1.74058C8.60251 2.00836 8.43515 2.34309 8.26778 2.61087C8.10042 2.87866 7.89958 3.14644 7.73222 3.41422C7.56485 3.682 7.43096 3.98326 7.29707 4.25104C7.12971 4.51883 6.99582 4.78661 6.86192 5.05439Z" fill="white"/>
</svg>
