<svg width="33" height="35" viewBox="0 0 33 35" fill="none" xmlns="http://www.w3.org/2000/svg">
<path d="M19.5569 7.87186V11.0544C23.2174 11.4761 26.5236 12.6793 28.0698 14.0457C31.3873 11.5492 30.4651 6.84851 30.392 6.49428C30.1241 6.05507 29.8193 5.63937 29.4811 5.25164C23.9596 -1.01776 11.522 0.0730602 11.522 0.0730602V7.12965C14.2145 6.57331 17.0118 6.8317 19.5569 7.87186Z" fill="white"/>
<path d="M17.2461 21.1303L16.2452 17.8353L14.4235 23.8854C14.3871 24.0198 14.3095 24.1393 14.2015 24.2271C14.0936 24.3149 13.9607 24.3665 13.8218 24.3746H13.7825C13.6496 24.3752 13.5195 24.3358 13.4093 24.2617C13.299 24.1875 13.2135 24.0819 13.164 23.9585L11.5446 19.9326C11.5446 19.9326 10.8305 20.8604 10.6731 21.0572C10.6162 21.1461 10.5412 21.2221 10.4531 21.2802C10.3649 21.3384 10.2656 21.3773 10.1614 21.3945H0.327148C0.385388 22.9969 0.718216 24.5773 1.31114 26.0671H9.1268V33.8827C12.4727 35.232 16.2112 35.232 19.5571 33.8827V26.0896C19.5571 26.0896 22.7114 25.8872 24.8875 24.8188C28.5479 23.0252 29.5544 19.9382 29.5544 18.7575C25.4104 22.1311 17.8758 21.597 17.8758 21.597C17.7349 21.5961 17.5979 21.5505 17.4847 21.4666C17.3715 21.3826 17.2879 21.2649 17.2461 21.1303Z" fill="white"/>
<path d="M11.0498 18.0548C11.1735 17.8299 11.2859 17.7062 11.5446 17.7174C11.8032 17.7287 11.9551 17.9761 12.0506 18.2179L13.4563 21.0293L15.4018 15.1816C15.4396 15.0428 15.5214 14.92 15.635 14.8318C15.7486 14.7436 15.8878 14.6947 16.0316 14.6924C16.1735 14.692 16.3117 14.7371 16.4261 14.8211C16.5405 14.9051 16.6249 15.0236 16.667 15.1591L18.3032 20.3714C20.929 20.5859 23.5717 20.2997 26.0907 19.528C27.5099 19.1623 28.796 18.4012 29.7993 17.3331C30.8027 16.265 31.4821 14.9339 31.7585 13.4947C32.0541 12.2853 32.084 11.0262 31.8462 9.80409C31.6084 8.58199 31.1085 7.42597 30.3809 6.41565C30.3809 6.41565 31.7248 12.2746 27.1309 14.5968C24.73 15.8113 19.5571 15.6426 19.5571 15.6426V7.87195C16.2112 6.52272 12.4727 6.52272 9.1268 7.87195V15.6876H1.31675C0.715585 17.1947 0.380742 18.7947 0.327148 20.4164H9.77904L11.0498 18.0548Z" fill="white"/>
</svg>
