<svg width="20" height="24" viewBox="0 0 20 24" fill="none" xmlns="http://www.w3.org/2000/svg">
<path d="M7.04329 9.6C7.04329 11.2573 8.39676 12.6108 10.0541 12.6108C11.7114 12.6108 13.0649 11.2573 13.0649 9.6C13.0649 7.94266 11.7114 6.58919 10.0541 6.58919C8.39676 6.58919 7.04329 7.94266 7.04329 9.6ZM1.06491 9.84C1.06491 4.22003 5.33244 0.610813 10.0541 0.610813C14.7758 0.610813 19.0433 4.22003 19.0433 9.84C19.0433 11.6674 18.3074 13.7234 16.7471 16.0236C15.2538 18.2251 13.0288 20.6152 10.0541 23.1943C7.07943 20.6152 4.85442 18.2251 3.36109 16.0236C1.80078 13.7234 1.06491 11.6674 1.06491 9.84Z" stroke="#E3051C" stroke-width="1.22163"/>
</svg>
