<svg width="170" height="35" viewBox="0 0 170 35" fill="none" xmlns="http://www.w3.org/2000/svg">
<g clip-path="url(#clip0_1_4)">
<path d="M80.4906 24.0149L77.2238 18.2965V26.1066H75.2839V15.6538H77.7917L80.7155 20.6412L83.6394 15.6538H86.1471V26.1066H84.2073V18.2965L80.9404 24.0149H80.4906Z" fill="#0067A2"/>
<path d="M95.2111 21.5971H91.6012V24.341H95.7227V26.1009H89.6558V15.6538H95.5541V17.4306H91.6181V19.8484H95.2279L95.2111 21.5971Z" fill="#0067A2"/>
<path d="M106.974 15.6538V24.3579H108.391L108.048 28.7493H106.513V26.1066H99.2426V28.7493H97.7188L97.3589 24.3579H98.5229C100.137 22.463 100.362 20.1464 100.508 15.6538H106.974ZM105.034 17.4306H102.285C102.15 20.7143 101.778 22.9522 100.626 24.3747H105.028L105.034 17.4306Z" fill="#0067A2"/>
<path d="M111.084 15.6538H113.035V22.1762L118.934 15.6538H119.979V26.1066H118.039V19.5954L112.124 26.1066H111.078L111.084 15.6538Z" fill="#0067A2"/>
<path d="M133.654 24.3579L133.277 28.7493H131.754V26.1066H123.477V15.6538H125.405V24.3579H130.286V15.6538H132.226V24.3579H133.654Z" fill="#0067A2"/>
<path d="M136.42 15.6538H138.338V22.1762L144.236 15.6538H145.282V26.1066H143.342V19.5954L137.466 26.1066H136.42V15.6538Z" fill="#0067A2"/>
<path d="M155.633 26.1066V21.6083H150.753V26.1066H148.813V15.6538H150.753V19.8203H155.633V15.6538H157.573V26.1066H155.633Z" fill="#0067A2"/>
<path d="M167.087 24.088H162.864L161.998 26.1009H159.969L164.765 15.3558H165.198L169.988 26.1066H167.959L167.087 24.088ZM163.545 22.4911H166.356L164.939 19.2074L163.545 22.4911Z" fill="#0067A2"/>
<path d="M1.95157 26.0841H0.017334V15.6538H3.43036C5.28026 15.6538 7.03457 16.7784 7.03457 18.9488C7.03457 21.226 5.2915 22.255 3.44161 22.255H1.95157V26.0841ZM1.95157 20.6918H3.04239C4.34125 20.6918 5.01036 20.0677 5.01036 18.9488C5.01036 17.8298 4.34125 17.2619 3.04239 17.2619H1.95157V20.6918Z" fill="#E3051C"/>
<path d="M20.3099 26.0841C19.1854 24.0149 18.5387 22.8341 17.0487 21.5858H16.5708V26.0841H14.6365V21.5858H14.1586C12.6686 22.8397 11.9995 24.0149 10.8974 26.0841H8.49646C10.0765 23.357 10.9705 21.9007 12.4886 20.675L8.64265 15.6538H11.0098L14.153 19.8259H14.6365V15.6538H16.5708V19.8259H17.0487L20.1918 15.6538H22.559L18.7131 20.675C20.2312 21.8951 21.1252 23.357 22.7052 26.0841H20.3099Z" fill="#E3051C"/>
<path d="M33.4054 15.6538V24.341H34.8224L34.4794 28.7212H32.9444V26.0841H25.691V28.7212H24.1953L23.8354 24.341H24.9994C26.6075 22.4518 26.8324 20.1408 26.9786 15.6538H33.4054ZM31.4712 17.4306H28.7273C28.5923 20.7087 28.2212 22.9409 27.0742 24.3579H31.4712V17.4306Z" fill="#E3051C"/>
<path d="M59.557 7.87189V11.0544C63.2174 11.4761 66.5236 12.6794 68.0699 14.0457C71.3873 11.5492 70.4652 6.84854 70.3921 6.49431C70.1241 6.0551 69.8194 5.6394 69.4812 5.25167C63.9596 -1.01773 51.522 0.0730907 51.522 0.0730907V7.12968C54.2146 6.57335 57.0119 6.83174 59.557 7.87189Z" fill="url(#paint0_linear_1_4)"/>
<path d="M57.246 21.1304L56.2452 17.8354L54.4234 23.8856C54.3871 24.0199 54.3094 24.1394 54.2015 24.2272C54.0935 24.315 53.9607 24.3666 53.8218 24.3747H53.7824C53.6495 24.3753 53.5195 24.336 53.4092 24.2618C53.2989 24.1876 53.2135 24.082 53.1639 23.9587L51.5445 19.9327C51.5445 19.9327 50.8304 20.8605 50.673 21.0573C50.6161 21.1462 50.5412 21.2222 50.453 21.2804C50.3649 21.3385 50.2655 21.3774 50.1613 21.3947H40.3271C40.3853 22.997 40.7182 24.5775 41.3111 26.0672H49.1267V33.8829C52.4726 35.2321 56.2111 35.2321 59.557 33.8829V26.0897C59.557 26.0897 62.7114 25.8873 64.8874 24.8189C68.5478 23.0253 69.5543 19.9384 69.5543 18.7576C65.4103 22.1313 57.8758 21.5971 57.8758 21.5971C57.7349 21.5963 57.5979 21.5506 57.4846 21.4667C57.3714 21.3828 57.2878 21.265 57.246 21.1304Z" fill="url(#paint1_linear_1_4)"/>
<path d="M51.0497 18.0547C51.1734 17.8298 51.2859 17.7061 51.5445 17.7174C51.8032 17.7286 51.955 17.976 52.0506 18.2178L53.4563 21.0292L55.4018 15.1815C55.4395 15.0427 55.5214 14.92 55.635 14.8317C55.7485 14.7435 55.8877 14.6946 56.0315 14.6923C56.1734 14.6919 56.3117 14.737 56.426 14.821C56.5404 14.905 56.6248 15.0235 56.6669 15.159L58.3031 20.3713C60.929 20.5858 63.5716 20.2996 66.0907 19.5279C67.5098 19.1623 68.7959 18.4011 69.7993 17.333C70.8027 16.2649 71.4821 14.9338 71.7584 13.4946C72.054 12.2852 72.084 11.0261 71.8461 9.80399C71.6083 8.5819 71.1084 7.42587 70.3809 6.41556C70.3809 6.41556 71.7247 12.2745 67.1309 14.5967C64.73 15.8112 59.557 15.6425 59.557 15.6425V7.87186C56.2111 6.52263 52.4726 6.52263 49.1267 7.87186V15.6875H41.3167C40.7155 17.1946 40.3807 18.7946 40.3271 20.4163H49.779L51.0497 18.0547Z" fill="url(#paint2_linear_1_4)"/>
</g>
<defs>
<linearGradient id="paint0_linear_1_4" x1="51.522" y1="7.0116" x2="71.7809" y2="7.0116" gradientUnits="userSpaceOnUse">
<stop offset="0.17" stop-color="white"/>
<stop offset="0.45" stop-color="#D9ECF9"/>
<stop offset="1" stop-color="#86C3EC"/>
</linearGradient>
<linearGradient id="paint1_linear_1_4" x1="54.9407" y1="34.9118" x2="54.9407" y2="17.8354" gradientUnits="userSpaceOnUse">
<stop offset="0.04" stop-color="#BE1622"/>
<stop offset="0.13" stop-color="#C81120"/>
<stop offset="0.31" stop-color="#D70A1E"/>
<stop offset="0.53" stop-color="#E0061C"/>
<stop offset="0.85" stop-color="#E3051C"/>
</linearGradient>
<linearGradient id="paint2_linear_1_4" x1="56.1665" y1="21.0517" x2="56.1665" y2="6.43243" gradientUnits="userSpaceOnUse">
<stop stop-color="#00A0DE"/>
<stop offset="0.13" stop-color="#0091CE"/>
<stop offset="0.4" stop-color="#0077B3"/>
<stop offset="0.56" stop-color="#006EA9"/>
<stop offset="1" stop-color="#0067A2"/>
</linearGradient>
<clipPath id="clip0_1_4">
<rect width="170" height="34.9119" fill="white"/>
</clipPath>
</defs>
</svg>
