<svg width="32" height="35" viewBox="0 0 32 35" fill="none" xmlns="http://www.w3.org/2000/svg">
<path d="M19.2299 7.87149V11.054C22.8903 11.4757 26.1965 12.679 27.7428 14.0453C31.0602 11.5488 30.1381 6.84815 30.065 6.49391C29.797 6.0547 29.4923 5.639 29.1541 5.25128C23.6325 -1.01813 11.1949 0.0726939 11.1949 0.0726939V7.12929C13.8875 6.57295 16.6848 6.83134 19.2299 7.87149Z" fill="url(#paint0_linear_10_200)"/>
<path d="M16.9189 21.13L15.9181 17.8351L14.0963 23.8852C14.06 24.0195 13.9824 24.139 13.8744 24.2268C13.7664 24.3146 13.6336 24.3662 13.4947 24.3744H13.4553C13.3224 24.375 13.1924 24.3356 13.0821 24.2614C12.9718 24.1872 12.8864 24.0816 12.8368 23.9583L11.2174 19.9324C11.2174 19.9324 10.5034 20.8601 10.3459 21.0569C10.289 21.1459 10.2141 21.2219 10.1259 21.28C10.0378 21.3381 9.93841 21.3771 9.83424 21.3943H0C0.0582399 22.9966 0.391067 24.5771 0.983987 26.0668H8.79965V33.8825C12.1455 35.2317 15.8841 35.2317 19.2299 33.8825V26.0893C19.2299 26.0893 22.3843 25.8869 24.5603 24.8186C28.2207 23.0249 29.2272 19.938 29.2272 18.7572C25.0832 22.1309 17.5487 21.5967 17.5487 21.5967C17.4078 21.5959 17.2708 21.5502 17.1575 21.4663C17.0443 21.3824 16.9607 21.2646 16.9189 21.13Z" fill="url(#paint1_linear_10_200)"/>
<path d="M10.7226 18.0543C10.8463 17.8294 10.9588 17.7057 11.2174 17.717C11.4761 17.7282 11.6279 17.9756 11.7235 18.2174L13.1292 21.0288L15.0747 15.1811C15.1124 15.0423 15.1943 14.9196 15.3079 14.8313C15.4214 14.7431 15.5606 14.6942 15.7044 14.6919C15.8463 14.6915 15.9846 14.7366 16.0989 14.8206C16.2133 14.9046 16.2977 15.0231 16.3398 15.1586L17.976 20.3709C20.6019 20.5854 23.2446 20.2992 25.7636 19.5275C27.1827 19.1619 28.4688 18.4007 29.4722 17.3326C30.4756 16.2645 31.155 14.9334 31.4313 13.4942C31.7269 12.2848 31.7569 11.0257 31.5191 9.8036C31.2812 8.5815 30.7813 7.42548 30.0538 6.41516C30.0538 6.41516 31.3976 12.2741 26.8038 14.5963C24.4029 15.8108 19.2299 15.6421 19.2299 15.6421V7.87146C15.8841 6.52223 12.1455 6.52223 8.79965 7.87146V15.6871H0.989607C0.388436 17.1942 0.0535934 18.7942 0 20.4159H9.4519L10.7226 18.0543Z" fill="url(#paint2_linear_10_200)"/>
<defs>
<linearGradient id="paint0_linear_10_200" x1="11.1949" y1="7.01121" x2="31.4538" y2="7.01121" gradientUnits="userSpaceOnUse">
<stop offset="0.17" stop-color="white"/>
<stop offset="0.45" stop-color="#D9ECF9"/>
<stop offset="1" stop-color="#86C3EC"/>
</linearGradient>
<linearGradient id="paint1_linear_10_200" x1="14.6136" y1="34.9115" x2="14.6136" y2="17.8351" gradientUnits="userSpaceOnUse">
<stop offset="0.04" stop-color="#BE1622"/>
<stop offset="0.13" stop-color="#C81120"/>
<stop offset="0.31" stop-color="#D70A1E"/>
<stop offset="0.53" stop-color="#E0061C"/>
<stop offset="0.85" stop-color="#E3051C"/>
</linearGradient>
<linearGradient id="paint2_linear_10_200" x1="15.8394" y1="21.0513" x2="15.8394" y2="6.43203" gradientUnits="userSpaceOnUse">
<stop stop-color="#00A0DE"/>
<stop offset="0.13" stop-color="#0091CE"/>
<stop offset="0.4" stop-color="#0077B3"/>
<stop offset="0.56" stop-color="#006EA9"/>
<stop offset="1" stop-color="#0067A2"/>
</linearGradient>
</defs>
</svg>
