<svg width="24" height="24" viewBox="0 0 24 24" fill="none" xmlns="http://www.w3.org/2000/svg">
<path d="M9.2861 5.92984C9.38215 6.15404 9.40254 6.40344 9.34418 6.64026C9.28582 6.87709 9.15189 7.08846 8.96266 7.24236L6.12198 9.5674C7.84242 13.2163 10.779 16.1529 14.4279 17.8733L16.753 15.0327C16.9071 14.8438 17.1185 14.7102 17.3552 14.6518C17.5919 14.5935 17.8412 14.6136 18.0655 14.7092M9.2861 5.92984L7.03606 0.679743M9.2861 5.92984L8.82653 6.1268C8.87976 6.25109 8.89106 6.38934 8.8587 6.52063C8.82634 6.65194 8.75209 6.76913 8.64717 6.85446L8.64597 6.85544L5.8053 9.18048L5.5033 9.42765L5.66973 9.78063C7.43968 13.5346 10.4607 16.5556 14.2147 18.3256L14.5677 18.492L14.8148 18.19L17.1399 15.3493L17.1403 15.3489C17.2259 15.244 17.3433 15.1697 17.4749 15.1373C17.6062 15.1049 17.7445 15.1161 17.869 15.169L17.8685 15.1688L18.0655 14.7092M9.2861 5.92984L8.8265 6.12673L6.57776 0.879642L7.03606 0.679743M7.03606 0.679743C6.93064 0.438055 6.7442 0.240726 6.50887 0.12178C6.27355 0.00283371 6.0041 -0.0302726 5.74698 0.0281692M7.03606 0.679743L6.57649 0.876703L6.57722 0.878395C6.51824 0.743979 6.41435 0.634243 6.28332 0.568015C6.1521 0.501689 6.00188 0.483152 5.85849 0.515577L5.85941 0.515365L5.74698 0.0281692M5.74698 0.0281692L0.87189 1.15319M5.74698 0.0281692L5.8578 0.515733L0.98439 1.64037L0.87189 1.15319M0.87189 1.15319C0.623997 1.21043 0.402825 1.35001 0.244474 1.54914C0.0861227 1.74827 -5.71046e-05 1.9952 0 2.24961C0 14.2733 9.74549 24 21.7504 24C22.0049 24.0002 22.2519 23.914 22.4511 23.7557C22.6504 23.5973 22.79 23.3761 22.8473 23.1281M0.87189 1.15319L0.98432 1.64038C0.846628 1.6722 0.72378 1.74973 0.635821 1.86035C0.547847 1.97098 0.499968 2.10816 0.5 2.2495L0.5 2.24961C0.5 13.9968 10.0213 23.5 21.7504 23.5H21.7507C21.8921 23.5001 22.0293 23.4522 22.14 23.3643C22.2507 23.2763 22.3283 23.1534 22.3601 23.0157L22.8473 23.1281M22.8473 23.1281L23.9723 18.253M22.8473 23.1281L22.3601 23.0156L23.4845 18.1434L23.9723 18.253M23.9723 18.253C24.0304 17.9947 23.9966 17.7241 23.8767 17.488C23.7568 17.2519 23.5584 17.0649 23.3156 16.9592M23.9723 18.253L23.4851 18.1406L23.4847 18.1422C23.5169 17.9977 23.4979 17.8464 23.4308 17.7143C23.3638 17.5822 23.2529 17.4776 23.1172 17.4182L23.1186 17.4188L23.3156 16.9592M23.3156 16.9592L18.0655 14.7092M23.3156 16.9592L23.1161 17.4177L17.8694 15.1692L18.0655 14.7092" stroke="#0067A2"/>
</svg>
