<svg width="20" height="20" viewBox="0 0 20 20" fill="none" xmlns="http://www.w3.org/2000/svg">
<path fill-rule="evenodd" clip-rule="evenodd" d="M10 1C11.9142 1 13.124 1.64261 13.5266 2.02193C13.5883 2.08013 13.623 2.15907 13.623 2.24138V6.58621H18.2342C18.3827 6.58621 18.5129 6.67988 18.5519 6.8149C18.8897 7.98198 19.3647 10.9429 18.5496 13.503C18.5079 13.6342 18.3796 13.7241 18.2342 13.7241H13.623V18.069C13.623 18.1865 13.5526 18.294 13.441 18.3465C12.9577 18.5742 11.6339 19 10 19C8.36608 19 7.04226 18.5742 6.55903 18.3465C6.44744 18.294 6.37696 18.1865 6.37696 18.069V13.7241H1.76583C1.62038 13.7241 1.49215 13.6342 1.45035 13.503C0.63525 10.9429 1.11026 7.98198 1.44807 6.8149C1.48715 6.67988 1.6173 6.58621 1.76583 6.58621H6.37696V2.24138C6.37696 2.15907 6.41166 2.08013 6.47343 2.02193C6.87601 1.64261 8.08582 1 10 1ZM10 1.62069C8.39759 1.62069 7.4024 2.10883 7.03569 2.38129V6.89655C7.03569 7.06795 6.88823 7.2069 6.70633 7.2069H2.02198C1.7214 8.40079 1.38612 10.9006 2.01459 13.1034H6.70633C6.88823 13.1034 7.03569 13.2424 7.03569 13.4138V17.8686C7.55378 18.0701 8.65966 18.3793 10 18.3793C11.3403 18.3793 12.4462 18.0701 12.9643 17.8686V13.4138C12.9643 13.2424 13.1118 13.1034 13.2937 13.1034H17.9854C18.6139 10.9006 18.2786 8.40079 17.978 7.2069H13.2937C13.1118 7.2069 12.9643 7.06795 12.9643 6.89655V2.38129C12.5976 2.10883 11.6024 1.62069 10 1.62069Z" fill="url(#paint0_linear_38_72)" stroke="url(#paint1_linear_38_72)" stroke-linejoin="round"/>
<defs>
<linearGradient id="paint0_linear_38_72" x1="1" y1="1" x2="19" y2="19" gradientUnits="userSpaceOnUse">
<stop stop-color="#00A2FF"/>
<stop offset="1" stop-color="#FF001A"/>
</linearGradient>
<linearGradient id="paint1_linear_38_72" x1="1" y1="1" x2="19" y2="19" gradientUnits="userSpaceOnUse">
<stop stop-color="#00A2FF"/>
<stop offset="1" stop-color="#FF001A"/>
</linearGradient>
</defs>
</svg>
