<svg width="24" height="17" viewBox="0 0 24 17" fill="none" xmlns="http://www.w3.org/2000/svg">
<path d="M0 2.20553C0 1.39921 0.458498 0.964427 1.37549 0.901186L4.90909 0.924901C5.14625 0.924901 5.30435 1.04348 5.3834 1.28063C5.74704 2.4664 6.15415 3.49012 6.60474 4.35178C7.05534 5.21344 7.64427 6.20553 8.37154 7.32806C8.43478 7.47036 8.53755 7.5415 8.67984 7.5415C8.79051 7.5415 8.87747 7.48617 8.94071 7.37549L9.01186 7.11462L9.03557 3.01186C9.03557 2.72727 8.96838 2.53755 8.83399 2.44269C8.6996 2.34783 8.45059 2.27668 8.08696 2.22925C7.80237 2.18182 7.66008 2.00791 7.66008 1.70751C7.66008 1.64427 7.66798 1.59684 7.68379 1.56522C8.01581 0.537549 8.96443 0.0237154 10.5296 0.0237154L11.8577 0C12.4585 0 12.9565 0.150198 13.3518 0.450593C13.747 0.750988 13.9447 1.2253 13.9447 1.87352V7.25692C14.0553 7.33597 14.1581 7.37549 14.253 7.37549C14.4901 7.37549 14.6957 7.2332 14.8696 6.94862C16.6087 4.51383 17.5494 2.88538 17.6917 2.06324C17.6917 2.04743 17.7075 2.00791 17.7391 1.94466C17.8498 1.70751 18.0316 1.50198 18.2846 1.32806C18.5375 1.15415 18.7589 1.03557 18.9486 0.972332C19.0119 0.940711 19.083 0.924901 19.1621 0.924901H22.8379L23.0751 0.948617C23.3913 0.948617 23.6364 1.09881 23.8103 1.39921C23.8735 1.49407 23.917 1.59684 23.9407 1.70751C23.9644 1.81818 23.9802 1.92885 23.9881 2.03953C23.996 2.1502 24 2.21344 24 2.22925V2.39526C23.8893 3.04348 23.6087 3.73518 23.1581 4.47036C22.7075 5.20553 22.1344 6 21.4387 6.85375C20.7431 7.70751 20.3083 8.26877 20.1344 8.53755C19.9921 8.72727 19.9209 8.90119 19.9209 9.05929C19.9209 9.18577 19.9842 9.32806 20.1107 9.48617L23.5731 13.8498C23.7628 14.1028 23.8577 14.3794 23.8577 14.6798C23.8577 15.0435 23.7154 15.3439 23.4308 15.581C23.1462 15.8182 22.8063 15.9526 22.4111 15.9842L22.0079 16.0079H18.4032C18.3874 16.0079 18.3557 16.0119 18.3083 16.0198C18.2609 16.0277 18.2292 16.0316 18.2134 16.0316C17.8656 16.0316 17.5415 15.8814 17.2411 15.581C17.1304 15.4545 16.3874 14.5217 15.0119 12.7826C14.9328 12.6719 14.8221 12.5692 14.6798 12.4743C14.6166 12.7273 14.5336 13.0909 14.4308 13.5652C14.3281 14.0395 14.253 14.3794 14.2055 14.585L14.1344 14.9881C13.9763 15.5415 13.6443 15.8735 13.1383 15.9842L12.8063 16.0079H10.4822C9.16996 16.0079 7.86166 15.4071 6.55731 14.2055C5.25296 13.004 4.07905 11.4506 3.03557 9.54545C1.99209 7.64032 1.01976 5.42292 0.118577 2.89328C0.0395257 2.68775 0 2.4585 0 2.20553ZM14.253 8.34783C13.9209 8.34783 13.6206 8.25692 13.3518 8.0751C13.083 7.89328 12.9486 7.64427 12.9486 7.32806V1.87352C12.9486 1.55731 12.8696 1.33202 12.7115 1.19763C12.5534 1.06324 12.2767 0.996047 11.8814 0.996047L10.5296 1.04348C9.8498 1.04348 9.33597 1.16206 8.98814 1.39921C9.68379 1.73123 10.0316 2.26877 10.0316 3.01186V7.18577C10 7.58103 9.8419 7.90909 9.55731 8.16996C9.27273 8.43083 8.95652 8.56126 8.6087 8.56126C8.13439 8.56126 7.77075 8.33202 7.51779 7.87352C6.28458 6.00791 5.36759 4.23715 4.7668 2.56126L4.55336 1.94466L1.39921 1.92095C1.19368 1.92095 1.07905 1.93281 1.05534 1.95652C1.03162 1.98024 1.01976 2.04743 1.01976 2.1581C1.01976 2.3004 1.03557 2.45059 1.06719 2.6087L1.56522 3.93676C2.89328 7.36759 4.33597 10.0711 5.89328 12.0474C7.45059 14.0237 8.98024 15.0119 10.4822 15.0119H12.8538C12.9486 15.0119 13.0198 14.9842 13.0672 14.9289C13.1146 14.8735 13.1542 14.7668 13.1858 14.6087L13.2332 14.3715L13.6838 12.2846C13.8103 12 13.9209 11.8103 14.0158 11.7154C14.1897 11.5415 14.3953 11.4545 14.6324 11.4545C15.0119 11.4545 15.3992 11.6838 15.7945 12.1423L17.8103 14.7036C17.9368 14.9091 18.0711 15.0119 18.2134 15.0119H22.1265C22.6008 15.0119 22.8379 14.8933 22.8379 14.6561C22.8379 14.5771 22.8142 14.498 22.7668 14.419L19.3281 10.1265C19.0593 9.79447 18.9249 9.43874 18.9249 9.05929C18.9249 8.67984 19.0514 8.31621 19.3043 7.96838C19.5099 7.65217 19.9091 7.12648 20.502 6.3913C21.0949 5.65613 21.6126 4.96838 22.0553 4.32806C22.498 3.68775 22.7905 3.10672 22.9328 2.58498L23.004 2.27668C22.9881 2.24506 22.9802 2.19368 22.9802 2.12253C22.9802 2.05138 22.9723 1.99209 22.9565 1.94466H19.2332C18.996 2.03953 18.8063 2.18182 18.664 2.37154L18.5217 2.82213C18.1265 3.91304 17.0909 5.59684 15.415 7.87352C15.083 8.18972 14.6957 8.34783 14.253 8.34783Z" fill="white"/>
</svg>
