<svg width="24" height="24" viewBox="0 0 24 24" fill="none" xmlns="http://www.w3.org/2000/svg">
<path d="M0 12.5515V12.585C0.301255 16.4678 1.70711 19.3799 4.15063 21.2209C6.56067 23.0954 9.17155 23.9992 12.0167 23.9992C14.9958 24.0327 17.7741 23.0285 20.251 21.0201C22.7615 19.0452 24 16.0996 24 12.2837V12.0494C24 8.20003 22.7615 5.32137 20.251 3.34647C17.7406 1.3381 14.9623 0.33392 11.9833 0.33392H11.8494C8.93724 0.367392 6.25941 1.37158 3.78243 3.37994C1.30544 5.35484 0.0334728 8.40086 0 12.5515ZM11.2803 17.8067V23.0954H10.477C10.3096 22.8946 10.1757 22.6603 10.0418 22.4594C9.90795 22.2586 9.77406 22.0578 9.64017 21.8235C9.50628 21.6226 9.33891 21.3548 9.23849 21.154C9.1046 20.9532 9.00418 20.7523 8.90377 20.518C8.70293 20.1833 8.53556 19.8486 8.40167 19.5473C8.23431 19.2461 8.10042 18.9448 8 18.677C8.20084 18.5431 8.43515 18.3758 8.70293 18.2753C9.00418 18.1749 9.30544 18.0745 9.60669 18.0076C9.94142 17.9406 10.2427 17.9071 10.5105 17.8737C10.8117 17.8402 11.0795 17.8067 11.2803 17.8067ZM12.6862 23.0954V17.8402C12.8536 17.8402 13.0544 17.8067 13.2552 17.8402C13.4561 17.8402 13.6904 17.8737 13.8912 17.9071C14.2594 17.9741 14.6946 18.0745 15.0293 18.1749C15.3975 18.3088 15.7322 18.4762 15.9665 18.677C15.5649 19.6477 15.1297 20.4176 14.6946 21.154C14.2594 21.8904 13.7573 22.5264 13.2218 23.062V23.0954H12.6862ZM9.07113 22.7942V22.8276C8.83682 22.7272 8.60251 22.5599 8.33473 22.4594C8.10042 22.359 7.79916 22.2251 7.56485 22.0912C7.09623 21.8569 6.62761 21.5891 6.159 21.2879C5.72385 20.9866 5.2887 20.6519 4.9205 20.3172C5.05439 20.1833 5.22176 20.0494 5.35565 19.949C5.48954 19.8486 5.6569 19.7147 5.82427 19.5808C5.95816 19.5138 6.12552 19.4134 6.29289 19.2795C6.46025 19.1791 6.66109 19.0452 6.86192 18.9113C7.12971 19.5138 7.39749 20.1498 7.73222 20.7189C8.06695 21.3214 8.43515 21.8904 8.80335 22.3925C8.83682 22.4594 8.87029 22.5264 8.93724 22.5933C8.97071 22.6268 9.00418 22.7272 9.07113 22.7942ZM19.3138 20.3172V20.3507C18.477 20.9866 17.7406 21.5222 17.0042 21.8569C16.2678 22.1917 15.5314 22.5264 14.8619 22.7942C15.3975 22.2586 15.8661 21.5891 16.1674 20.9532C16.5021 20.2837 16.8368 19.5808 17.1046 18.9113C17.2385 18.9783 17.4059 19.0452 17.6067 19.1791C17.7741 19.2795 18.0084 19.3799 18.2092 19.4804C18.41 19.6143 18.5774 19.7481 18.7782 19.882C18.9791 20.0494 19.1799 20.1833 19.3138 20.3172ZM18.7448 12.8527H22.5941C22.5941 14.0912 22.3264 15.2628 21.8243 16.4678C21.3556 17.6394 20.6862 18.6101 19.8494 19.4469V19.4804C19.682 19.2126 19.4477 18.9783 19.2134 18.8109C18.9456 18.6435 18.7113 18.5097 18.4435 18.3758C18.2761 18.2753 18.1088 18.1414 17.9414 18.0745C17.7741 17.9741 17.5397 17.9071 17.3724 17.8067C17.5063 17.5389 17.6402 17.2377 17.7741 16.9699C17.8745 16.6686 18.0418 16.3339 18.1088 16.0327C18.3096 15.4971 18.4435 14.9281 18.5774 14.359C18.6778 13.8569 18.7448 13.3214 18.7448 12.8527ZM6.62761 17.8067V17.8402C6.35983 17.9741 6.05858 18.0745 5.82427 18.2084C5.58996 18.3758 5.35565 18.5431 5.15481 18.677C4.95397 18.7774 4.75314 18.9113 4.58577 19.0452C4.41841 19.1791 4.28452 19.313 4.15063 19.4469C3.28033 18.6101 2.64435 17.6728 2.24268 16.5682C1.80753 15.4636 1.50628 14.2251 1.37238 12.8862H5.48954C5.48954 13.8235 5.62343 14.7272 5.85774 15.631C6.05858 16.5682 6.35983 17.2712 6.62761 17.8067ZM11.2803 12.8862V16.7356C11.0126 16.7021 10.6778 16.7021 10.3766 16.7356C10.0418 16.7691 9.70711 16.8695 9.40586 16.9699C9.13807 17.0368 8.80335 17.1038 8.53556 17.2042C8.23431 17.2712 7.93305 17.405 7.69874 17.5389C7.49791 17.2042 7.33054 16.8025 7.19665 16.3674C7.02929 15.9657 6.92887 15.5306 6.82845 15.1289C6.76151 14.7272 6.72803 14.2921 6.69456 13.9239C6.66109 13.5557 6.62761 13.1875 6.62761 12.8862H11.2803ZM12.6862 16.6686V12.8862H17.6402C17.6402 13.0871 17.6402 13.3214 17.6067 13.5891C17.5397 13.8235 17.5063 14.1247 17.4728 14.3925C17.3724 14.7942 17.272 15.2293 17.1381 15.631C17.0042 15.9992 16.8703 16.3674 16.7029 16.6686C16.636 16.836 16.569 17.0368 16.5021 17.1707C16.4017 17.3381 16.3013 17.4385 16.2343 17.5389C15.8661 17.2712 15.364 17.1038 14.7615 16.9699C14.1925 16.836 13.523 16.7021 12.9205 16.6686H12.6862ZM5.48954 11.7816H1.37238C1.37238 11.2126 1.4728 10.5766 1.64017 9.80672C1.80753 9.00337 2.14226 8.26697 2.51046 7.46362C2.67782 7.06195 2.87866 6.66028 3.0795 6.25861C3.31381 5.89041 3.58159 5.48873 3.84937 5.12053C4.05021 5.25442 4.25105 5.35484 4.41841 5.45526C4.61925 5.55568 4.85356 5.68957 5.05439 5.78999C5.2887 5.89041 5.52301 5.99082 5.79079 6.12471C6.0251 6.22513 6.32636 6.35902 6.62761 6.49292C6.35983 7.32973 6.05858 8.13308 5.85774 9.03685C5.62343 9.90714 5.48954 10.7774 5.48954 11.7481V11.7816ZM11.2803 7.8653V11.7816H6.62761C6.62761 11.5138 6.66109 11.1122 6.72803 10.7105C6.76151 10.3088 6.86192 9.87367 6.92887 9.43852C7.06276 8.9699 7.16318 8.50128 7.29707 8.09961C7.43096 7.69794 7.56485 7.36321 7.69874 7.06195C8.30126 7.29626 8.90377 7.46362 9.30544 7.56404C9.74059 7.69794 10.1423 7.79835 10.5439 7.83183H10.9121C11.046 7.8653 11.1799 7.8653 11.2803 7.8653ZM12.6862 11.7816V7.89877C12.9205 7.8653 13.1883 7.83183 13.4561 7.79835C13.7573 7.76488 14.1255 7.69794 14.4268 7.63099L14.9289 7.53057C15.0962 7.46362 15.2971 7.43015 15.4644 7.39668C15.6653 7.32973 15.8661 7.29626 16.0669 7.22932C16.2343 7.16237 16.4017 7.1289 16.5356 7.06195C16.9707 8.16655 17.2385 9.07032 17.4059 9.84019C17.5732 10.5766 17.6402 11.2126 17.6402 11.7481V11.7816H12.6862ZM22.5941 11.7481V11.7816H18.7448V11.5808C18.7113 10.9448 18.6109 10.2084 18.477 9.43852C18.3431 8.70212 18.0418 7.83183 17.6402 6.7607C18.1757 6.49292 18.6778 6.22513 19.0795 5.95735C19.4812 5.68957 19.8494 5.38831 20.1172 5.12053C20.6862 5.68957 21.1883 6.45944 21.6234 7.46362C22.0586 8.43434 22.3598 9.43852 22.5272 10.5097C22.5607 10.7105 22.5607 10.9113 22.5941 11.1122V11.7481ZM11.2803 1.57241V6.79417C10.4435 6.66028 9.74059 6.49292 9.20502 6.35902C8.66946 6.22513 8.26778 6.09124 8 5.95735C8.20084 5.45526 8.40167 5.02011 8.60251 4.61844C8.80335 4.25024 9.03766 3.84856 9.23849 3.51384C9.30544 3.37994 9.43933 3.24605 9.53975 3.07869C9.64017 2.9448 9.70711 2.77743 9.80753 2.64354C9.90795 2.47618 10.0084 2.27534 10.1088 2.0745C10.2427 1.90714 10.3431 1.7063 10.477 1.57241H11.2803ZM12.6862 1.57241H13.4561C13.7573 1.80672 14.0586 2.14145 14.2929 2.50965C14.5607 2.87785 14.8619 3.313 15.0628 3.6812C15.2971 4.11635 15.5314 4.51802 15.7322 4.91969C15.9331 5.32137 16.1004 5.68957 16.2343 5.95735C15.8661 6.09124 15.364 6.22513 14.8619 6.35902C14.3598 6.49292 13.6569 6.62681 12.6862 6.7607V1.57241ZM19.3138 4.31718V4.35066C19.2469 4.45107 19.113 4.58496 19.0126 4.68538C18.9121 4.7858 18.7448 4.91969 18.5774 5.02011C18.4435 5.12053 18.2761 5.22095 18.0753 5.32137C17.8745 5.42179 17.6067 5.55568 17.3724 5.68957C17.2385 5.42179 17.0042 4.95317 16.6695 4.31718C16.3682 3.6812 15.8326 2.91133 15.1632 2.0745C16 2.2084 16.7364 2.50965 17.4059 2.91133C18.1423 3.27953 18.7782 3.78162 19.3138 4.31718ZM6.86192 5.38831V5.42179C6.62761 5.2879 6.25941 5.12053 5.89121 4.95317C5.48954 4.7858 5.05439 4.58496 4.65272 4.31718C4.88703 4.11635 5.12134 3.91551 5.32218 3.78162C5.52301 3.61425 5.75732 3.48036 5.95816 3.34647C6.32636 3.11216 6.76151 2.87785 7.19665 2.67702C7.6318 2.47618 8.16736 2.27534 8.83682 2.0745C8.60251 2.34229 8.43515 2.67702 8.26778 2.9448C8.10042 3.21258 7.89958 3.48036 7.73222 3.74815C7.56485 4.01593 7.43096 4.31718 7.29707 4.58496C7.12971 4.85275 6.99582 5.12053 6.86192 5.38831Z" fill="#0067A2"/>
</svg>
